<svg xmlns="http://www.w3.org/2000/svg" xmlns:xlink="http://www.w3.org/1999/xlink" width="600" height="379" version="1.1" viewBox="146 76 600 379"><defs><pattern id="djs-grid-pattern-907290" width="10" height="10" patternUnits="userSpaceOnUse"><circle cx=".5" cy=".5" r=".5" style="fill:#ccc"/></pattern><marker id="sequenceflow-end-white-hsl_225_10_15_-e347hzqcgudlosxdjs230xs3j" markerHeight="10" markerWidth="10" orient="auto" refX="11" refY="10" viewBox="0 0 20 20"><path d="M 1 5 L 11 10 L 1 15 Z" style="stroke-linecap:round;stroke-linejoin:round;stroke:#22242a;stroke-width:1px;fill:#22242a"/></marker></defs><g class="djs-group"><g class="djs-element djs-shape" data-element-id="StartEvent_1f10ly7" transform="matrix(1, 0, 0, 1, 152, 252)" style="display:block"><g class="djs-visual"><circle cx="18" cy="18" r="18" style="stroke-linecap:round;stroke-linejoin:round;stroke:#22242a;stroke-width:2px;fill:#fff;fill-opacity:.95"/></g><rect style="fill:none;stroke-opacity:0;stroke:#fff;stroke-width:15px" width="36" height="36" x="0" y="0" class="djs-hit djs-hit-all"/><rect width="48" height="48" x="-6" y="-6" rx="4" style="fill:none" class="djs-outline"/></g></g><g class="djs-group"><g class="djs-element djs-shape" data-element-id="Activity_0db2m3w" transform="matrix(1, 0, 0, 1, 240, 230)" style="display:block"><g class="djs-visual"><rect width="100" height="80" x="0" y="0" rx="10" ry="10" style="stroke-linecap:round;stroke-linejoin:round;stroke:#22242a;stroke-width:2px;fill:#fff;fill-opacity:.95"/><text style="font-family:Arial,sans-serif;font-size:12px;font-weight:400;fill:#22242a" class="djs-label" lineHeight="1.2"><tspan x="40.325" y="43.6">Idle</tspan></text></g><rect style="fill:none;stroke-opacity:0;stroke:#fff;stroke-width:15px" width="100" height="80" x="0" y="0" class="djs-hit djs-hit-all"/><rect width="112" height="92" x="-6" y="-6" rx="4" style="fill:none" class="djs-outline"/></g></g><g class="djs-group"><g class="djs-element djs-shape" data-element-id="Gateway_1554g9b" transform="matrix(1, 0, 0, 1, 395, 245)" style="display:block"><g class="djs-visual"><polygon style="stroke-linecap:round;stroke-linejoin:round;stroke:#22242a;stroke-width:2px;fill:#fff;fill-opacity:.95" points="25 0 50 25 25 50 0 25"/><path style="fill:#22242a;stroke-linecap:round;stroke-linejoin:round;stroke:#22242a;stroke-width:1px" d="m 16,15 7.42857142857143,9.714285714285715 -7.42857142857143,9.714285714285715 3.428571428571429,0 5.714285714285715,-7.464228571428572 5.714285714285715,7.464228571428572 3.428571428571429,0 -7.42857142857143,-9.714285714285715 7.42857142857143,-9.714285714285715 -3.428571428571429,0 -5.714285714285715,7.464228571428572 -5.714285714285715,-7.464228571428572 -3.428571428571429,0 z"/></g><rect style="fill:none;stroke-opacity:0;stroke:#fff;stroke-width:15px" width="50" height="50" x="0" y="0" class="djs-hit djs-hit-all"/><rect width="62" height="62" x="-6" y="-6" rx="4" style="fill:none" class="djs-outline"/></g></g><g class="djs-group"><g class="djs-element djs-shape" data-element-id="Event_03jenn5" transform="matrix(1, 0, 0, 1, 402, 392)" style="display:block"><g class="djs-visual"><circle cx="18" cy="18" r="18" style="stroke-linecap:round;stroke-linejoin:round;stroke:#22242a;stroke-width:4px;fill:#fff;fill-opacity:.95"/></g><rect style="fill:none;stroke-opacity:0;stroke:#fff;stroke-width:15px" width="36" height="36" x="0" y="0" class="djs-hit djs-hit-all"/><rect width="48" height="48" x="-6" y="-6" rx="4" style="fill:none" class="djs-outline"/></g></g><g class="djs-group"><g class="djs-element djs-shape" data-element-id="Activity_0htjm4s" transform="matrix(1, 0, 0, 1, 640, 230)" style="display:block"><g class="djs-visual"><rect width="100" height="80" x="0" y="0" rx="10" ry="10" style="stroke-linecap:round;stroke-linejoin:round;stroke:#22242a;stroke-width:2px;fill:#fff;fill-opacity:.95"/><text style="font-family:Arial,sans-serif;font-size:12px;font-weight:400;fill:#22242a" class="djs-label" lineHeight="1.2"><tspan x="35.325" y="43.6">Move</tspan></text></g><rect style="fill:none;stroke-opacity:0;stroke:#fff;stroke-width:15px" width="100" height="80" x="0" y="0" class="djs-hit djs-hit-all"/><rect width="112" height="92" x="-6" y="-6" rx="4" style="fill:none" class="djs-outline"/></g></g><g class="djs-group"><g class="djs-element djs-shape" data-element-id="Gateway_15unyj4" transform="matrix(1, 0, 0, 1, 535, 245)" style="display:block"><g class="djs-visual"><polygon style="stroke-linecap:round;stroke-linejoin:round;stroke:#22242a;stroke-width:2px;fill:#fff;fill-opacity:.95" points="25 0 50 25 25 50 0 25"/><path style="fill:#22242a;stroke-linecap:round;stroke-linejoin:round;stroke:#22242a;stroke-width:1px" d="m 23,13 0,7.116788321167883 -5.018248175182482,-5.018248175182482 -3.102189781021898,3.102189781021898 5.018248175182482,5.018248175182482 -7.116788321167883,0 0,4.37956204379562 7.116788321167883,0 -5.018248175182482,5.018248175182482 l 3.102189781021898,3.102189781021898 5.018248175182482,-5.018248175182482 0,7.116788321167883 4.37956204379562,0 0,-7.116788321167883 5.018248175182482,5.018248175182482 3.102189781021898,-3.102189781021898 -5.018248175182482,-5.018248175182482 7.116788321167883,0 0,-4.37956204379562 -7.116788321167883,0 5.018248175182482,-5.018248175182482 -3.102189781021898,-3.102189781021898 -5.018248175182482,5.018248175182482 0,-7.116788321167883 -4.37956204379562,0 z"/></g><rect style="fill:none;stroke-opacity:0;stroke:#fff;stroke-width:15px" width="50" height="50" x="0" y="0" class="djs-hit djs-hit-all"/><rect width="62" height="62" x="-6" y="-6" rx="4" style="fill:none" class="djs-outline"/></g></g><g class="djs-group"><g class="djs-element djs-shape" data-element-id="Event_1i1flwm" transform="matrix(1, 0, 0, 1, 672, 112)" style="display:block"><g class="djs-visual"><circle cx="18" cy="18" r="18" style="stroke-linecap:round;stroke-linejoin:round;stroke:#22242a;stroke-width:1.5px;fill:#fff;fill-opacity:.95"/><circle cx="18" cy="18" r="15" style="stroke-linecap:round;stroke-linejoin:round;stroke:#22242a;stroke-width:1.5px;fill:none"/><circle cx="18" cy="18" r="11" style="stroke-linecap:round;stroke-linejoin:round;stroke:#22242a;stroke-width:2px;fill:#fff"/><path style="fill:none;stroke-linecap:round;stroke-linejoin:round;stroke:#22242a;stroke-width:2px" d="M 18,18 l 2.25,-7.5 m -2.25,7.5 l 5.25,1.5"/><path style="fill:none;stroke-linecap:round;stroke-linejoin:round;stroke:#22242a;stroke-width:1px" d="M 18,18 m 0,7.5 l -0,2.25" transform="rotate(0,18,18)"/><path style="fill:none;stroke-linecap:round;stroke-linejoin:round;stroke:#22242a;stroke-width:1px" d="M 18,18 m 0,7.5 l -0,2.25" transform="rotate(30,18,18)"/><path style="fill:none;stroke-linecap:round;stroke-linejoin:round;stroke:#22242a;stroke-width:1px" d="M 18,18 m 0,7.5 l -0,2.25" transform="rotate(60,18,18)"/><path style="fill:none;stroke-linecap:round;stroke-linejoin:round;stroke:#22242a;stroke-width:1px" d="M 18,18 m 0,7.5 l -0,2.25" transform="rotate(90,18,18)"/><path style="fill:none;stroke-linecap:round;stroke-linejoin:round;stroke:#22242a;stroke-width:1px" d="M 18,18 m 0,7.5 l -0,2.25" transform="rotate(120,18,18)"/><path style="fill:none;stroke-linecap:round;stroke-linejoin:round;stroke:#22242a;stroke-width:1px" d="M 18,18 m 0,7.5 l -0,2.25" transform="rotate(150,18,18)"/><path style="fill:none;stroke-linecap:round;stroke-linejoin:round;stroke:#22242a;stroke-width:1px" d="M 18,18 m 0,7.5 l -0,2.25" transform="rotate(180,18,18)"/><path style="fill:none;stroke-linecap:round;stroke-linejoin:round;stroke:#22242a;stroke-width:1px" d="M 18,18 m 0,7.5 l -0,2.25" transform="rotate(210,18,18)"/><path style="fill:none;stroke-linecap:round;stroke-linejoin:round;stroke:#22242a;stroke-width:1px" d="M 18,18 m 0,7.5 l -0,2.25" transform="rotate(240,18,18)"/><path style="fill:none;stroke-linecap:round;stroke-linejoin:round;stroke:#22242a;stroke-width:1px" d="M 18,18 m 0,7.5 l -0,2.25" transform="rotate(270,18,18)"/><path style="fill:none;stroke-linecap:round;stroke-linejoin:round;stroke:#22242a;stroke-width:1px" d="M 18,18 m 0,7.5 l -0,2.25" transform="rotate(300,18,18)"/><path style="fill:none;stroke-linecap:round;stroke-linejoin:round;stroke:#22242a;stroke-width:1px" d="M 18,18 m 0,7.5 l -0,2.25" transform="rotate(330,18,18)"/></g><rect style="fill:none;stroke-opacity:0;stroke:#fff;stroke-width:15px" width="36" height="36" x="0" y="0" class="djs-hit djs-hit-all"/><rect width="48" height="48" x="-6" y="-6" rx="4" style="fill:none" class="djs-outline"/></g></g><g class="djs-group"><g class="djs-element djs-shape" data-element-id="StartEvent_1f10ly7_label" transform="matrix(1, 0, 0, 1, 158, 295)" style="display:block"><g class="djs-visual"><text style="font-family:Arial,sans-serif;font-size:11px;font-weight:400;fill:#22242a" class="djs-label" lineHeight="1.2"><tspan x="0" y="9.9">Start</tspan></text></g><rect style="fill:none;stroke-opacity:0;stroke:#fff;stroke-width:15px" width="24" height="14" x="0" y="0" class="djs-hit djs-hit-all"/><rect width="36" height="26" x="-6" y="-6" rx="4" style="fill:none" class="djs-outline"/></g></g><g class="djs-group"><g class="djs-element djs-shape" data-element-id="Gateway_1554g9b_label" transform="matrix(1, 0, 0, 1, 393, 223)" style="display:block"><g class="djs-visual"><text style="font-family:Arial,sans-serif;font-size:11px;font-weight:400;fill:#22242a" class="djs-label" lineHeight="1.2"><tspan x="0" y="9.9">Moveable?</tspan></text></g><rect style="fill:none;stroke-opacity:0;stroke:#fff;stroke-width:15px" width="54" height="14" x="0" y="0" class="djs-hit djs-hit-all"/><rect width="66" height="26" x="-6" y="-6" rx="4" style="fill:none" class="djs-outline"/></g></g><g class="djs-group"><g class="djs-element djs-shape" data-element-id="Flow_0tmulkm_label" transform="matrix(1, 0, 0, 1, 465, 252)" style="display:block"><g class="djs-visual"><text style="font-family:Arial,sans-serif;font-size:11px;font-weight:400;fill:#22242a" class="djs-label" lineHeight="1.2"><tspan x="0" y="9.9">Can Move</tspan></text></g><rect style="fill:none;stroke-opacity:0;stroke:#fff;stroke-width:15px" width="51" height="14" x="0" y="0" class="djs-hit djs-hit-all"/><rect width="63" height="26" x="-6" y="-6" rx="4" style="fill:none" class="djs-outline"/></g></g><g class="djs-group"><g class="djs-element djs-shape" data-element-id="Flow_18udtb0_label" transform="matrix(1, 0, 0, 1, 432, 323)" style="display:block"><g class="djs-visual"><text style="font-family:Arial,sans-serif;font-size:11px;font-weight:400;fill:#22242a" class="djs-label" lineHeight="1.2"><tspan x="0" y="9.9">Can&apos;t Move</tspan></text></g><rect style="fill:none;stroke-opacity:0;stroke:#fff;stroke-width:15px" width="56" height="14" x="0" y="0" class="djs-hit djs-hit-all"/><rect width="68" height="26" x="-6" y="-6" rx="4" style="fill:none" class="djs-outline"/></g></g><g class="djs-group"><g class="djs-element djs-shape" data-element-id="Gateway_15unyj4_label" transform="matrix(1, 0, 0, 1, 515, 295)" style="display:block"><g class="djs-visual"><text style="font-family:Arial,sans-serif;font-size:11px;font-weight:400;fill:#22242a" class="djs-label" lineHeight="1.2"><tspan x="0" y="9.9">Wait for command</tspan></text></g><rect style="fill:none;stroke-opacity:0;stroke:#fff;stroke-width:15px" width="89" height="14" x="0" y="0" class="djs-hit djs-hit-all"/><rect width="101" height="26" x="-6" y="-6" rx="4" style="fill:none" class="djs-outline"/></g></g><g class="djs-group"><g class="djs-element djs-shape" data-element-id="Event_1i1flwm_label" transform="matrix(1, 0, 0, 1, 650, 82)" style="display:block"><g class="djs-visual"><text style="font-family:Arial,sans-serif;font-size:11px;font-weight:400;fill:#22242a" class="djs-label" lineHeight="1.2"><tspan x="0" y="9.9">Wait for Move to </tspan><tspan x="25.14" y="23.1">Finish</tspan></text></g><rect style="fill:none;stroke-opacity:0;stroke:#fff;stroke-width:15px" width="80" height="27" x="0" y="0" class="djs-hit djs-hit-all"/><rect width="92" height="39" x="-6" y="-6" rx="4" style="fill:none" class="djs-outline"/></g></g><g class="djs-group"><g class="djs-element djs-connection" data-element-id="Flow_0kh7c86" style="display:block"><g class="djs-visual"><path style="fill:none;stroke-linecap:round;stroke-linejoin:round;stroke:#22242a;stroke-width:2px;marker-end:url(#sequenceflow-end-white-hsl_225_10_15_-e347hzqcgudlosxdjs230xs3j)" d="M188,270L240,270" data-corner-radius="5"/></g><path d="M188,270L240,270" style="fill:none;stroke-opacity:0;stroke:#fff;stroke-width:15px" class="djs-hit djs-hit-stroke"/><rect width="64" height="12" x="182" y="264" rx="4" style="fill:none" class="djs-outline"/></g></g><g class="djs-group"><g class="djs-element djs-connection" data-element-id="Flow_1sobf2p" style="display:block"><g class="djs-visual"><path style="fill:none;stroke-linecap:round;stroke-linejoin:round;stroke:#22242a;stroke-width:2px;marker-end:url(#sequenceflow-end-white-hsl_225_10_15_-e347hzqcgudlosxdjs230xs3j)" d="M340,270L395,270" data-corner-radius="5"/></g><path d="M340,270L395,270" style="fill:none;stroke-opacity:0;stroke:#fff;stroke-width:15px" class="djs-hit djs-hit-stroke"/><rect width="67" height="12" x="334" y="264" rx="4" style="fill:none" class="djs-outline"/></g></g><g class="djs-group"><g class="djs-element djs-connection" data-element-id="Flow_18udtb0" style="display:block"><g class="djs-visual"><path style="fill:none;stroke-linecap:round;stroke-linejoin:round;stroke:#22242a;stroke-width:2px;marker-end:url(#sequenceflow-end-white-hsl_225_10_15_-e347hzqcgudlosxdjs230xs3j)" d="M420,295L420,392" data-corner-radius="5"/></g><path d="M420,295L420,392" style="fill:none;stroke-opacity:0;stroke:#fff;stroke-width:15px" class="djs-hit djs-hit-stroke"/><rect width="12" height="109" x="414" y="289" rx="4" style="fill:none" class="djs-outline"/></g></g><g class="djs-group"><g class="djs-element djs-connection" data-element-id="Flow_0tmulkm" style="display:block"><g class="djs-visual"><path style="fill:none;stroke-linecap:round;stroke-linejoin:round;stroke:#22242a;stroke-width:2px;marker-end:url(#sequenceflow-end-white-hsl_225_10_15_-e347hzqcgudlosxdjs230xs3j)" d="M445,270L535,270" data-corner-radius="5"/></g><path d="M445,270L535,270" style="fill:none;stroke-opacity:0;stroke:#fff;stroke-width:15px" class="djs-hit djs-hit-stroke"/><rect width="102" height="12" x="439" y="264" rx="4" style="fill:none" class="djs-outline"/></g></g><g class="djs-group"><g class="djs-element djs-connection" data-element-id="Flow_0rb2ck6" style="display:block"><g class="djs-visual"><path style="fill:none;stroke-linecap:round;stroke-linejoin:round;stroke:#22242a;stroke-width:2px;marker-end:url(#sequenceflow-end-white-hsl_225_10_15_-e347hzqcgudlosxdjs230xs3j)" d="M585,270L640,270" data-corner-radius="5"/></g><path d="M585,270L640,270" style="fill:none;stroke-opacity:0;stroke:#fff;stroke-width:15px" class="djs-hit djs-hit-stroke"/><rect width="67" height="12" x="579" y="264" rx="4" style="fill:none" class="djs-outline"/></g></g><g class="djs-group"><g class="djs-element djs-connection" data-element-id="Flow_0picmh4" style="display:block"><g class="djs-visual"><path style="fill:none;stroke-linecap:round;stroke-linejoin:round;stroke:#22242a;stroke-width:2px;marker-end:url(#sequenceflow-end-white-hsl_225_10_15_-e347hzqcgudlosxdjs230xs3j)" d="M690,230L690,148" data-corner-radius="5"/></g><path d="M690,230L690,148" style="fill:none;stroke-opacity:0;stroke:#fff;stroke-width:15px" class="djs-hit djs-hit-stroke"/><rect width="12" height="94" x="684" y="142" rx="4" style="fill:none" class="djs-outline"/></g></g><g class="djs-group"><g class="djs-element djs-connection" data-element-id="Flow_0bib3oj" style="display:block"><g class="djs-visual"><path style="fill:none;stroke-linecap:round;stroke-linejoin:round;stroke:#22242a;stroke-width:2px;marker-end:url(#sequenceflow-end-white-hsl_225_10_15_-e347hzqcgudlosxdjs230xs3j)" d="M672,130L565,130C562.5,130,560,132.5,560,135L560,245" data-corner-radius="5"/></g><path d="M672,130L560,130L560,245" style="fill:none;stroke-opacity:0;stroke:#fff;stroke-width:15px" class="djs-hit djs-hit-stroke"/><rect width="124" height="127" x="554" y="124" rx="4" style="fill:none" class="djs-outline"/></g></g><g class="djs-group"><g class="djs-element djs-shape" data-element-id="Event_03jenn5_label" transform="matrix(1, 0, 0, 1, 410, 435)" style="display:block"><g class="djs-visual"><text style="font-family:Arial,sans-serif;font-size:11px;font-weight:400;fill:#22242a" class="djs-label" lineHeight="1.2"><tspan x="0" y="9.9">End</tspan></text></g><rect style="fill:none;stroke-opacity:0;stroke:#fff;stroke-width:15px" width="20" height="14" x="0" y="0" class="djs-hit djs-hit-all"/><rect width="32" height="26" x="-6" y="-6" rx="4" style="fill:none" class="djs-outline"/></g></g></svg>